<svg xmlns="http://www.w3.org/2000/svg" width="400" height="80" viewBox="0 0 400 80"><rect width="400" height="80" fill="white"/><rect x="20" y="10" width="3" height="60" fill="black"/><rect x="24" y="10" width="3" height="60" fill="black"/><rect x="28" y="10" width="3" height="60" fill="black"/><rect x="36" y="10" width="3" height="60" fill="black"/><rect x="43" y="10" width="3" height="60" fill="black"/><rect x="54" y="10" width="3" height="60" fill="black"/><rect x="57" y="10" width="3" height="60" fill="black"/><rect x="66" y="10" width="3" height="60" fill="black"/><rect x="77" y="10" width="3" height="60" fill="black"/><rect x="98" y="10" width="3" height="60" fill="black"/><rect x="105" y="10" width="3" height="60" fill="black"/><rect x="134" y="10" width="3" height="60" fill="black"/><rect x="141" y="10" width="3" height="60" fill="black"/><rect x="144" y="10" width="3" height="60" fill="black"/><rect x="151" y="10" width="3" height="60" fill="black"/><rect x="164" y="10" width="3" height="60" fill="black"/><rect x="167" y="10" width="3" height="60" fill="black"/><rect x="170" y="10" width="3" height="60" fill="black"/><rect x="195" y="10" width="3" height="60" fill="black"/><rect x="198" y="10" width="3" height="60" fill="black"/><rect x="201" y="10" width="3" height="60" fill="black"/><rect x="226" y="10" width="3" height="60" fill="black"/><rect x="229" y="10" width="3" height="60" fill="black"/><rect x="240" y="10" width="3" height="60" fill="black"/><rect x="243" y="10" width="3" height="60" fill="black"/><rect x="256" y="10" width="3" height="60" fill="black"/><rect x="259" y="10" width="3" height="60" fill="black"/><rect x="266" y="10" width="3" height="60" fill="black"/><rect x="287" y="10" width="3" height="60" fill="black"/><rect x="290" y="10" width="3" height="60" fill="black"/><rect x="301" y="10" width="3" height="60" fill="black"/><rect x="318" y="10" width="3" height="60" fill="black"/><rect x="321" y="10" width="3" height="60" fill="black"/><rect x="328" y="10" width="3" height="60" fill="black"/><rect x="335" y="10" width="3" height="60" fill="black"/><rect x="348" y="10" width="3" height="60" fill="black"/><rect x="351" y="10" width="3" height="60" fill="black"/><rect x="354" y="10" width="3" height="60" fill="black"/><rect x="379" y="10" width="3" height="60" fill="black"/><rect x="382" y="10" width="3" height="60" fill="black"/><rect x="389" y="10" width="3" height="60" fill="black"/><rect x="392" y="10" width="3" height="60" fill="black"/><rect x="395" y="10" width="3" height="60" fill="black"/><rect x="400" y="10" width="3" height="60" fill="black"/><rect x="404" y="10" width="3" height="60" fill="black"/><rect x="408" y="10" width="3" height="60" fill="black"/><text x="200" y="75" text-anchor="middle" font-family="monospace" font-size="14" fill="black">SHP-88342587</text></svg>